<svg width="70" height="19" viewBox="0 0 70 19" fill="none" xmlns="http://www.w3.org/2000/svg">
<path d="M30.2176 11.872H25.7696L25.0336 14H22.6816L26.6976 2.816H29.3056L33.3216 14H30.9536L30.2176 11.872ZM29.6096 10.08L27.9936 5.408L26.3776 10.08H29.6096Z" fill="#101010"/>
<path d="M37.0628 6.416C37.3508 6.01067 37.7454 5.67467 38.2467 5.408C38.7587 5.13067 39.3401 4.992 39.9907 4.992C40.7481 4.992 41.4307 5.17867 42.0387 5.552C42.6574 5.92533 43.1428 6.45867 43.4948 7.152C43.8574 7.83467 44.0387 8.62933 44.0387 9.536C44.0387 10.4427 43.8574 11.248 43.4948 11.952C43.1428 12.6453 42.6574 13.184 42.0387 13.568C41.4307 13.952 40.7481 14.144 39.9907 14.144C39.3401 14.144 38.7641 14.0107 38.2627 13.744C37.7721 13.4773 37.3721 13.1413 37.0628 12.736V18.224H34.8228V5.136H37.0628V6.416ZM41.7508 9.536C41.7508 9.00267 41.6387 8.544 41.4147 8.16C41.2014 7.76533 40.9134 7.46667 40.5508 7.264C40.1988 7.06133 39.8148 6.96 39.3988 6.96C38.9934 6.96 38.6094 7.06667 38.2467 7.28C37.8947 7.48267 37.6068 7.78133 37.3828 8.176C37.1694 8.57067 37.0628 9.03467 37.0628 9.568C37.0628 10.1013 37.1694 10.5653 37.3828 10.96C37.6068 11.3547 37.8947 11.6587 38.2467 11.872C38.6094 12.0747 38.9934 12.176 39.3988 12.176C39.8148 12.176 40.1988 12.0693 40.5508 11.856C40.9134 11.6427 41.2014 11.3387 41.4147 10.944C41.6387 10.5493 41.7508 10.08 41.7508 9.536Z" fill="#101010"/>
<path d="M47.9065 6.416C48.1945 6.01067 48.5892 5.67467 49.0905 5.408C49.6025 5.13067 50.1838 4.992 50.8345 4.992C51.5918 4.992 52.2745 5.17867 52.8825 5.552C53.5012 5.92533 53.9865 6.45867 54.3385 7.152C54.7012 7.83467 54.8825 8.62933 54.8825 9.536C54.8825 10.4427 54.7012 11.248 54.3385 11.952C53.9865 12.6453 53.5012 13.184 52.8825 13.568C52.2745 13.952 51.5918 14.144 50.8345 14.144C50.1838 14.144 49.6078 14.0107 49.1065 13.744C48.6158 13.4773 48.2158 13.1413 47.9065 12.736V18.224H45.6665V5.136H47.9065V6.416ZM52.5945 9.536C52.5945 9.00267 52.4825 8.544 52.2585 8.16C52.0452 7.76533 51.7572 7.46667 51.3945 7.264C51.0425 7.06133 50.6585 6.96 50.2425 6.96C49.8372 6.96 49.4532 7.06667 49.0905 7.28C48.7385 7.48267 48.4505 7.78133 48.2265 8.176C48.0132 8.57067 47.9065 9.03467 47.9065 9.568C47.9065 10.1013 48.0132 10.5653 48.2265 10.96C48.4505 11.3547 48.7385 11.6587 49.0905 11.872C49.4532 12.0747 49.8372 12.176 50.2425 12.176C50.6585 12.176 51.0425 12.0693 51.3945 11.856C51.7572 11.6427 52.0452 11.3387 52.2585 10.944C52.4825 10.5493 52.5945 10.08 52.5945 9.536Z" fill="#101010"/>
<path d="M58.7503 2.16V14H56.5103V2.16H58.7503Z" fill="#101010"/>
<path d="M69.2034 9.376C69.2034 9.696 69.182 9.984 69.1394 10.24H62.6594C62.7127 10.88 62.9367 11.3813 63.3314 11.744C63.726 12.1067 64.2114 12.288 64.7874 12.288C65.6194 12.288 66.2114 11.9307 66.5634 11.216H68.9794C68.7234 12.0693 68.2327 12.7733 67.5074 13.328C66.782 13.872 65.8914 14.144 64.8354 14.144C63.982 14.144 63.214 13.9573 62.5314 13.584C61.8594 13.2 61.3314 12.6613 60.9474 11.968C60.574 11.2747 60.3874 10.4747 60.3874 9.568C60.3874 8.65067 60.574 7.84533 60.9474 7.152C61.3207 6.45867 61.8434 5.92533 62.5154 5.552C63.1874 5.17867 63.9607 4.992 64.8354 4.992C65.678 4.992 66.43 5.17333 67.0914 5.536C67.7634 5.89867 68.2807 6.416 68.6434 7.088C69.0167 7.74933 69.2034 8.512 69.2034 9.376ZM66.8834 8.736C66.8727 8.16 66.6647 7.70133 66.2594 7.36C65.854 7.008 65.358 6.832 64.7714 6.832C64.2167 6.832 63.7474 7.00267 63.3634 7.344C62.99 7.67467 62.7607 8.13867 62.6754 8.736H66.8834Z" fill="#101010"/>
<path d="M10.0785 0C10.1158 0 10.153 0 10.1923 0C10.2837 1.12835 9.85299 1.97145 9.32957 2.58199C8.81598 3.18832 8.11269 3.77638 6.97521 3.68716C6.89933 2.57497 7.33072 1.7944 7.85344 1.18526C8.33822 0.617571 9.22699 0.112413 10.0785 0Z" fill="black"/>
<path d="M13.5221 11.7444C13.5221 11.7557 13.5221 11.7655 13.5221 11.776C13.2024 12.7442 12.7464 13.5739 12.19 14.344C11.682 15.043 11.0595 15.9838 9.94803 15.9838C8.98759 15.9838 8.34965 15.3662 7.36533 15.3494C6.3241 15.3325 5.7515 15.8658 4.7995 16C4.69059 16 4.58169 16 4.4749 16C3.77583 15.8988 3.21166 15.3452 2.80065 14.8463C1.58869 13.3723 0.652146 11.4683 0.477905 9.03174C0.477905 8.79286 0.477905 8.55469 0.477905 8.31581C0.551677 6.572 1.39899 5.15419 2.52523 4.46706C3.11962 4.10172 3.93672 3.79047 4.84657 3.92958C5.2365 3.99 5.63487 4.1235 5.98405 4.25558C6.31497 4.38275 6.72879 4.60828 7.12083 4.59633C7.38641 4.58861 7.65058 4.4502 7.91826 4.35254C8.70235 4.0694 9.47097 3.7448 10.4841 3.89726C11.7017 4.08134 12.5659 4.62233 13.0998 5.457C12.0698 6.11251 11.2555 7.10034 11.3946 8.78724C11.5183 10.3196 12.4092 11.2161 13.5221 11.7444Z" fill="black"/>
</svg>
