<svg width="16" height="14" viewBox="0 0 16 14" fill="none" xmlns="http://www.w3.org/2000/svg">
<path d="M7.59964 2.61521L8 3.15034L8.40036 2.61521C9.06792 1.72292 10.1374 1.14319 11.33 1.14319C13.354 1.14319 15 2.79199 15 4.83569C15 5.67381 14.8664 6.44694 14.6343 7.16427L14.6332 7.16753C14.0765 8.92924 12.9341 10.3534 11.695 11.4184C10.4538 12.4852 9.14415 13.1665 8.30394 13.4523L8.30393 13.4523L8.29859 13.4542C8.24125 13.4744 8.133 13.4932 8 13.4932C7.867 13.4932 7.75875 13.4744 7.70141 13.4542L7.70142 13.4542L7.69606 13.4523C6.85584 13.1665 5.54625 12.4852 4.30496 11.4184C3.06587 10.3534 1.92346 8.92924 1.36676 7.16753L1.36677 7.16753L1.36572 7.16428C1.13364 6.44694 1 5.67381 1 4.83569C1 2.79199 2.64598 1.14319 4.67 1.14319C5.8626 1.14319 6.93208 1.72292 7.59964 2.61521Z" stroke="#101010"/>
</svg>
