<svg width="14" height="17" viewBox="0 0 14 17" fill="none" xmlns="http://www.w3.org/2000/svg">
<path d="M11.5523 2.30019C10.2742 1.02202 8.57478 0.318115 6.76721 0.318115C4.95964 0.318115 3.2602 1.02202 1.98207 2.30019C0.703909 3.57838 0 5.27776 0 7.0853C0 10.7419 3.45745 13.7834 5.31493 15.4173C5.57305 15.6444 5.79596 15.8405 5.97355 16.0063C6.19606 16.2142 6.48165 16.3181 6.76718 16.3181C7.05278 16.3181 7.33831 16.2142 7.56084 16.0063C7.73844 15.8404 7.96134 15.6444 8.21947 15.4173C10.0769 13.7833 13.5344 10.7419 13.5344 7.0853C13.5344 5.27776 12.8305 3.57838 11.5523 2.30019ZM7.6004 14.7136C7.33662 14.9456 7.10884 15.146 6.92103 15.3215C6.83475 15.402 6.69962 15.402 6.61331 15.3215C6.42552 15.146 6.19771 14.9456 5.93393 14.7136C4.18767 13.1775 0.937191 10.3181 0.937191 7.08533C0.937191 3.87069 3.55248 1.2554 6.76715 1.2554C9.98179 1.2554 12.5971 3.87069 12.5971 7.08533C12.5971 10.3181 9.34666 13.1775 7.6004 14.7136Z" fill="#101010"/>
<path d="M6.76739 3.84753C5.12297 3.84753 3.78516 5.18532 3.78516 6.82973C3.78516 8.47415 5.12297 9.81193 6.76739 9.81193C8.4118 9.81193 9.74959 8.47415 9.74959 6.82973C9.74959 5.18532 8.4118 3.84753 6.76739 3.84753ZM6.76739 8.87465C5.63979 8.87465 4.72241 7.95727 4.72241 6.8297C4.72241 5.70213 5.63979 4.78476 6.76739 4.78476C7.89499 4.78476 8.81233 5.70213 8.81233 6.8297C8.81233 7.95727 7.89499 8.87465 6.76739 8.87465Z" fill="#101010"/>
</svg>
