<svg xmlns="http://www.w3.org/2000/svg" width="9.333" height="18.667" viewBox="0 0 9.333 18.667">
  <path id="next-w" d="M1.16.485a.863.863,0,0,1,.316.058A.827.827,0,0,1,1.744.71L8.459,7.064a3.882,3.882,0,0,1,.894,1.263,3.695,3.695,0,0,1,0,2.98,3.882,3.882,0,0,1-.894,1.263L1.744,18.923a.831.831,0,0,1-.268.169.869.869,0,0,1-.632,0,.831.831,0,0,1-.268-.169A.78.78,0,0,1,.4,18.67a.742.742,0,0,1,0-.6.779.779,0,0,1,.179-.253l6.716-6.353a2.245,2.245,0,0,0,0-3.3L.577,1.815A.777.777,0,0,1,.4,1.562a.739.739,0,0,1,0-.6A.777.777,0,0,1,.577.71.827.827,0,0,1,.845.543.863.863,0,0,1,1.16.485Z" transform="translate(-0.333 -0.485)" fill="#fff"/>
</svg>
